<?xml version="1.0" encoding="UTF-8"?>
<svg id="Layer_2" data-name="Layer 2" xmlns="http://www.w3.org/2000/svg" viewBox="0 0 880.49 118.83">
  <defs>
    <style>
      .cls-1 {
        fill: #045541;
      }
    </style>
  </defs>
  <g id="Layer_1-2" data-name="Layer 1">
    <g>
      <path class="cls-1" d="M69.38,96.93c-3.39,0-6.22-.37-8.49-1.11-2.27-.74-4.22-2.04-5.86-3.9-1.64-1.86-3.25-4.4-4.84-7.63l-9.18-19.35,9.43,7.3c-1.8.27-3.5.55-5.08.82-1.59.27-2.87.75-3.85,1.43-.98.68-1.48,1.82-1.48,3.4,0,1.09.3,2.28.9,3.57.6,1.29,1.34,2.6,2.21,3.94.87,1.34,1.75,2.68,2.62,4.02.87,1.34,1.61,2.68,2.21,4.02.6,1.34.9,2.61.9,3.81,0,4.04-1.18,7.68-3.53,10.91-2.35,3.22-5.56,5.77-9.64,7.63-4.07,1.86-8.71,2.79-13.9,2.79-4.37,0-8.2-.33-11.48-.98-3.28-.66-6.72-1.64-10.33-2.95l4.26-14.43h.98c.6.16,1.71.5,3.32,1.03,1.61.52,3.65,1.02,6.11,1.52,2.46.49,5.17.74,8.12.74,3.55,0,6.63-.42,9.23-1.27,2.6-.85,4.74-1.68,6.44-2.5l.49,6.15c-2.08-2.62-4.07-5.04-5.99-7.26-1.91-2.21-3.62-4.33-5.13-6.36-1.5-2.02-2.69-4.06-3.57-6.11-.88-2.05-1.31-4.25-1.31-6.6,0-3.72.83-6.93,2.5-9.63,1.67-2.71,3.92-5,6.77-6.89,2.84-1.89,6.01-3.44,9.51-4.67,3.5-1.23,7.08-2.26,10.74-3.08l1.64.98,7.13,15.42c1.31,2.79,2.45,4.97,3.4,6.56.96,1.59,1.91,2.69,2.87,3.32.96.63,2.12.94,3.48.94v12.79l-1.64,1.64ZM10.33,98.08c-2.02,0-3.76-.64-5.21-1.93-1.45-1.29-2.17-3.13-2.17-5.54s.72-4.15,2.17-5.41c1.45-1.26,3.21-1.89,5.29-1.89s3.74.63,5.17,1.89c1.42,1.26,2.13,3.06,2.13,5.41s-.71,4.25-2.13,5.54c-1.42,1.28-3.17,1.93-5.25,1.93ZM10.41,80.94c-2.02,0-3.76-.64-5.21-1.93-1.45-1.28-2.17-3.13-2.17-5.54s.72-4.15,2.17-5.41c1.45-1.26,3.21-1.89,5.29-1.89s3.74.63,5.17,1.89c1.42,1.26,2.13,3.06,2.13,5.41s-.71,4.25-2.13,5.54c-1.42,1.29-3.17,1.93-5.25,1.93Z"/>
      <path class="cls-1" d="M87.17,116.61v-5.82l20.91-6.81h.98v5.82l-20.91,6.81h-.98Z"/>
      <path class="cls-1" d="M71.02,82.5h15.33l-3.85,2.05c-2.08-1.86-3.84-4.11-5.29-6.76-1.45-2.65-2.17-5.73-2.17-9.23,0-4.21,1.08-7.79,3.24-10.74,2.16-2.95,5.1-5.19,8.82-6.72,3.72-1.53,7.9-2.3,12.55-2.3,2.95,0,6.29.33,10,.98,3.72.66,7.16,1.53,10.33,2.62l.33.66c-.22.98-.4,2.29-.53,3.94-.14,1.64-.25,3.31-.33,5-.08,1.7-.12,3.09-.12,4.18v28.13l-.33.66c-1.64.66-3.65,1.15-6.03,1.48-2.38.33-5.29.49-8.73.49h-34.85v-12.79l1.64-1.64ZM92.5,44.86c-2.02,0-3.76-.64-5.21-1.93-1.45-1.28-2.17-3.1-2.17-5.45s.72-4.24,2.17-5.49c1.45-1.26,3.18-1.89,5.21-1.89s3.83.63,5.25,1.89c1.42,1.26,2.13,3.09,2.13,5.49s-.71,4.17-2.13,5.45c-1.42,1.29-3.17,1.93-5.25,1.93ZM92.09,69.46c0,2.19.63,4.35,1.89,6.48,1.26,2.13,2.96,3.92,5.12,5.37,2.16,1.45,4.58,2.26,7.26,2.42l-4.43,5.17v-17.22c0-2.51.14-4.65.41-6.4.27-1.75.6-3.39.98-4.92l1.31,3.61c-.27-.11-.71-.27-1.31-.49-.6-.22-1.27-.42-2.01-.62-.74-.19-1.55-.29-2.42-.29-2.19,0-3.87.71-5.04,2.13-1.18,1.42-1.76,3.01-1.76,4.76ZM109.15,43.05c-2.02,0-3.76-.64-5.21-1.93-1.45-1.28-2.17-3.1-2.17-5.45s.72-4.24,2.17-5.49c1.45-1.26,3.18-1.89,5.21-1.89s3.83.63,5.25,1.89c1.42,1.26,2.13,3.09,2.13,5.49s-.71,4.17-2.13,5.45c-1.42,1.29-3.17,1.93-5.25,1.93Z"/>
      <path class="cls-1" d="M177.21,82.5h17.55v12.79l-1.64,1.64h-67.9v-.98l5.08-13.45h18.7l-5.66,2.38c-.82-.6-1.37-1.72-1.64-3.36-.27-1.64-.41-3.72-.41-6.23v-21.65l16.4-1.64h.98v37.56l-7.05-7.05h22.96l-5.66,2.38c-.82-.6-1.37-1.72-1.64-3.36-.27-1.64-.41-3.72-.41-6.23v-39.03l16.4-1.64h.98v54.94l-7.05-7.05Z"/>
      <path class="cls-1" d="M191.48,96.93v-12.79l1.64-1.64h39.28l-3.53,1.97c-3.17-1.64-6.45-3.68-9.84-6.11-3.39-2.43-6.78-5.12-10.17-8.08-3.39-2.95-6.67-5.99-9.84-9.1l9.51-13.45h.98c7.22,6.78,13.42,12.42,18.62,16.93,5.19,4.51,9.62,8.06,13.28,10.66,3.66,2.6,6.74,4.44,9.23,5.54,2.49,1.09,4.6,1.64,6.36,1.64h5.66v.98l-5.25,13.45h-65.93ZM236.75,58.88c-2.02,0-3.76-.64-5.21-1.93-1.45-1.28-2.17-3.1-2.17-5.45s.72-4.24,2.17-5.49c1.45-1.26,3.18-1.89,5.21-1.89s3.83.63,5.25,1.89c1.42,1.26,2.13,3.09,2.13,5.49s-.71,4.17-2.13,5.45c-1.42,1.29-3.17,1.93-5.25,1.93Z"/>
      <path class="cls-1" d="M265.45,12.96v-5.82l20.91-6.81h.98v5.82l-20.91,6.81h-.98Z"/>
      <path class="cls-1" d="M266.43,29.44c0-2.3.59-4.39,1.76-6.27,1.17-1.89,2.84-3.4,5-4.55,2.16-1.15,4.72-1.72,7.67-1.72h5.58v.82l-3.12,8.53h-1.97c-1.53,0-2.84.22-3.94.66-1.09.44-1.94,1.64-2.54,3.61l-.16-3.2c.44,1.31,1.09,2.23,1.97,2.75.87.52,1.97.78,3.28.78h6.64v.82l-3.2,8.36h-6.07c-2.02,0-3.87-.46-5.54-1.39-1.67-.93-2.98-2.19-3.94-3.77-.96-1.58-1.44-3.39-1.44-5.41ZM278.57,96.93c-3.44,0-6.06-1.22-7.83-3.65-1.78-2.43-2.67-5.81-2.67-10.13.98-.44,2.04-1.18,3.16-2.21,1.12-1.04,2.4-2.58,3.85-4.63,1.45-2.05,3.16-4.8,5.13-8.24l3.85-6.72v12.3l-15.42-26.9v-.98h16.24l6.97,12.71-6.56.57,13.94-24.44h16.73v.98l-20.99,38.05c-1.42,2.57-2.64,4.51-3.65,5.82-1.01,1.31-1.94,2.27-2.79,2.87-.85.6-1.76,1.18-2.75,1.72l-4.26-1.56h20.67l.74,12.14-6.89-12.14,4.59-7.96h.66l12.22,20.42v.66c-.55.49-1.3.83-2.26,1.02-.96.19-2.06.29-3.32.29h-29.36Z"/>
      <path class="cls-1" d="M319.25,36.25l17.71-1.64.33.66c-.22.98-.37,2.21-.45,3.69s-.14,2.98-.16,4.51c-.03,1.53-.04,2.84-.04,3.94v49.53h-17.38v-60.68Z"/>
      <path class="cls-1" d="M355.49,95.95c1.48,1.75,3.13,3.18,4.96,4.3,1.83,1.12,3.7,1.94,5.62,2.46,1.91.52,3.64.78,5.17.78,1.64,0,2.94-.27,3.89-.82.96-.55,1.57-.66,1.85-.33l-3.69,3.28c.82-1.09,1.52-2.73,2.09-4.92.57-2.19,1.01-4.63,1.31-7.34.3-2.71.45-5.34.45-7.91,0-3.01-.11-6.22-.33-9.64-.22-3.42-.49-6.7-.82-9.84-.33-3.14-.71-5.78-1.15-7.91l16.73-1.64h.98c.76,5.85,1.28,10.96,1.56,15.34.27,4.37.41,8.17.41,11.4,0,6.29-.68,11.66-2.05,16.11-1.37,4.46-3.24,8.09-5.62,10.91-2.38,2.82-5.14,4.87-8.28,6.15-3.14,1.29-6.52,1.93-10.13,1.93-3.06,0-5.81-.41-8.24-1.23s-4.48-1.78-6.15-2.87c-1.67-1.09-3.38-2.46-5.12-4.1l5.58-14.1h.98ZM360.99,88.81c-2.02,0-3.76-.64-5.21-1.93-1.45-1.28-2.17-3.1-2.17-5.45s.72-4.24,2.17-5.49c1.45-1.26,3.18-1.89,5.21-1.89s3.83.63,5.25,1.89c1.42,1.26,2.13,3.09,2.13,5.49s-.71,4.17-2.13,5.45c-1.42,1.29-3.17,1.93-5.25,1.93Z"/>
      <path class="cls-1" d="M402.4,77.99c0-3.28.59-6.4,1.76-9.35,1.17-2.95,2.8-5.55,4.88-7.79,2.08-2.24,4.48-4.02,7.22-5.33,2.73-1.31,5.69-1.97,8.86-1.97,2.9,0,5.77.74,8.61,2.21,2.84,1.48,5.44,3.61,7.79,6.4,2.35,2.79,4.24,6.18,5.66,10.17,1.42,3.99,2.13,8.5,2.13,13.53,0,7.11-1.16,13.08-3.49,17.92-2.32,4.84-5.56,8.47-9.72,10.91-4.16,2.43-9.05,3.65-14.68,3.65-3.83,0-7.13-.33-9.92-.98s-5.71-1.64-8.78-2.95l4.92-13.45h.98c2.4,1.09,4.91,1.86,7.5,2.3,2.6.44,4.69.66,6.27.66,2.35,0,4.46-.27,6.31-.82,1.86-.55,3.42-1.39,4.67-2.54l-4.18,4.02c.49-.66.98-1.6,1.48-2.83.49-1.23.89-3.04,1.19-5.41.3-2.38.45-5.64.45-9.8,0-2.57-.23-4.99-.7-7.26-.46-2.27-1.19-4.39-2.17-6.36-.98-1.97-2.2-3.76-3.65-5.37-1.45-1.61-3.16-2.99-5.12-4.14l7.71.57c-3.17.66-5.65,2.11-7.42,4.35-1.78,2.24-2.67,4.7-2.67,7.38,0,.93.27,1.97.82,3.12.55,1.15,1.44,2.12,2.67,2.91,1.23.79,2.91,1.19,5.04,1.19h5.99v-.41h21.89v12.79l-1.64,1.64-26.73.08c-4.76,0-8.94-.75-12.55-2.25s-6.41-3.68-8.41-6.52c-2-2.84-2.99-6.26-2.99-10.25Z"/>
      <path class="cls-1" d="M451.27,110.79c0-2.35.72-4.15,2.17-5.41s3.21-1.89,5.29-1.89,3.74.63,5.17,1.89,2.13,3.06,2.13,5.41-.71,4.25-2.13,5.54-3.17,1.93-5.25,1.93-3.76-.64-5.21-1.93-2.17-3.13-2.17-5.54ZM453.08,82.5h15.91l-5.66,2.38c-.82-.6-1.37-1.72-1.64-3.36-.27-1.64-.41-3.72-.41-6.23v-21.65l16.4-1.64h.98v37.56l-7.05-7.05h16.89v12.79l-1.64,1.64h-35.43v-12.79l1.64-1.64ZM467.92,108.98c0-2.35.72-4.16,2.17-5.41,1.45-1.26,3.21-1.89,5.29-1.89s3.74.63,5.17,1.89c1.42,1.26,2.13,3.06,2.13,5.41s-.71,4.25-2.13,5.54c-1.42,1.28-3.17,1.93-5.25,1.93s-3.76-.64-5.21-1.93c-1.45-1.29-2.17-3.13-2.17-5.54Z"/>
      <path class="cls-1" d="M490.39,26.57c-1.86,0-3.46-.44-4.8-1.31-1.34-.87-2.37-2.09-3.08-3.65-.71-1.56-1.07-3.38-1.07-5.45v-5.82l6.31-.66h.98v6.23c0,1.75.15,2.97.45,3.65.3.68.75,1.07,1.35,1.15s1.31.12,2.13.12l-1.8.9c.44-.66.7-1.65.78-2.99.08-1.34.12-2.67.12-3.98v-3.85l5.9-.66h.98v3.77c0,.6-.04,1.19-.12,1.76-.08.57-.34.94-.78,1.11v-2.21c.33.49.74.94,1.23,1.35.49.41,1.04.73,1.64.94.6.22,1.2.33,1.8.33l-1.8,1.48c.33-.38.64-.87.94-1.48.3-.6.56-1.56.78-2.87s.33-3.23.33-5.74v-1.64l6.31-.66h.98v.98c0,4.21-.42,7.52-1.27,9.92-.85,2.41-1.94,4.09-3.28,5.04-1.34.96-2.78,1.44-4.3,1.44-1.2,0-2.24-.23-3.12-.7-.88-.46-1.61-.89-2.21-1.27l1.64-.74c-.71,1.91-1.72,3.31-3.03,4.18-1.31.88-2.65,1.31-4.02,1.31ZM485.47,43.22v-5.82l20.91-6.81h.98v5.82l-20.91,6.81h-.98Z"/>
      <path class="cls-1" d="M486.86,96.93l.08-12.79,1.64-1.64h66.26c4.04,0,6.75-.48,8.12-1.44,1.37-.96,2.05-2.28,2.05-3.98,0-1.42-.29-2.65-.86-3.69-.57-1.04-1.08-1.83-1.52-2.38h6.81c-2.57.6-4.78,1.07-6.64,1.39s-3.54.56-5.04.7c-1.5.14-3.02.21-4.55.21h-47.56c-3.17,0-5.82-.81-7.95-2.42-2.13-1.61-3.42-4.41-3.85-8.41l34.44-30.18h.98l6.56,10.17-24.68,20.91-2.38-4.51h48.05c2.79,0,5.48-.08,8.08-.25,2.6-.16,4.71-.41,6.36-.74h.98c1.37,1.26,2.75,2.82,4.14,4.67,1.39,1.86,2.58,3.88,3.57,6.07.98,2.19,1.48,4.4,1.48,6.64,0,2.68-.64,5.25-1.93,7.71-1.29,2.46-3.54,4.67-6.77,6.64l-2.38,5.49c-1.59.55-3.39.98-5.41,1.31-2.02.33-4.29.49-6.81.49h-71.26ZM554.84,96.93l7.22-14.43h27.64l-.08,12.79-1.64,1.64h-33.13Z"/>
      <path class="cls-1" d="M607.98,47.97v-5.82l20.91-6.81h.98v5.82l-20.91,6.81h-.98Z"/>
      <path class="cls-1" d="M619.22,54.37c5.41,0,10,1,13.78,2.99,3.77,2,6.63,4.63,8.57,7.91,1.94,3.28,2.91,6.86,2.91,10.74,0,4.32-1,8.23-2.99,11.73-2,3.5-4.81,6.27-8.45,8.32-3.64,2.05-7.94,3.07-12.92,3.07-3.17,0-6.27-.51-9.31-1.52s-5.85-2.47-8.45-4.39c-2.6-1.91-4.85-4.26-6.77-7.05l13.04-9.84c1.42,1.53,3.25,2.93,5.49,4.18,2.24,1.26,4.59,2.27,7.05,3.04,2.46.77,4.73,1.2,6.81,1.31,1.09.06,1.85.08,2.26.08h1.02l-8.12,4.59c1.04-1.59,2.02-3.25,2.95-5,.93-1.75,1.39-3.83,1.39-6.23,0-2.24-.66-4.06-1.97-5.45-1.31-1.39-3.05-2.43-5.21-3.12-2.16-.68-4.5-1.03-7.01-1.03l3.77-2.62c-.49,5.08-1.27,9.55-2.34,13.41-1.07,3.86-2.67,7.07-4.8,9.64-2.13,2.57-4.96,4.51-8.49,5.82-3.53,1.31-8,1.97-13.41,1.97v-12.79l1.64-1.64c3.12,0,5.44-.82,6.97-2.46,1.53-1.64,2.72-4.24,3.57-7.79.85-3.55,1.71-8.23,2.58-14.02l.98-1.07c2.24-.76,4.66-1.42,7.26-1.97,2.6-.55,5.32-.82,8.16-.82Z"/>
      <path class="cls-1" d="M686.87,118.25c-3.55,0-6.79-.41-9.72-1.23-2.93-.82-5.45-1.78-7.59-2.87-2.13-1.09-4.37-2.46-6.72-4.1l5.58-14.1h.98c3.06,2.29,6.42,4.13,10.09,5.49,3.66,1.37,7.84,2.19,12.55,2.46,2.35,0,4.46-.19,6.31-.57,1.86-.38,3.42-1.31,4.67-2.79l-4.18,4.02c.49-.66.98-1.6,1.48-2.83.49-1.23.89-3.04,1.19-5.41.3-2.38.45-5.64.45-9.8,0-2.57-.23-4.99-.7-7.26-.46-2.27-1.19-4.39-2.17-6.36-.98-1.97-2.2-3.76-3.65-5.37-1.45-1.61-3.16-2.99-5.12-4.14l7.71.57c-3.17.66-5.65,2.11-7.42,4.35-1.78,2.24-2.67,4.7-2.67,7.38,0,.93.27,1.97.82,3.12.55,1.15,1.44,2.12,2.67,2.91,1.23.79,2.91,1.19,5.04,1.19.98,0,1.97-.07,2.95-.21.98-.14,1.97-.34,2.95-.62l.74,14.1c-1.2.27-2.39.48-3.57.62s-2.37.21-3.57.21c-4.76,0-8.94-.75-12.55-2.25s-6.41-3.68-8.41-6.52c-2-2.84-2.99-6.26-2.99-10.25,0-3.28.59-6.4,1.76-9.35,1.17-2.95,2.8-5.55,4.88-7.79,2.08-2.24,4.48-4.02,7.22-5.33,2.73-1.31,5.69-1.97,8.86-1.97,2.9,0,5.77.74,8.61,2.21,2.84,1.48,5.44,3.61,7.79,6.4,2.35,2.79,4.24,6.18,5.66,10.17,1.42,3.99,2.13,8.5,2.13,13.53,0,5.36-.79,10.06-2.38,14.11-1.59,4.04-3.83,7.42-6.72,10.13-2.9,2.71-6.3,4.74-10.21,6.11-3.91,1.37-8.16,2.05-12.75,2.05ZM686.79,49.04c-2.02,0-3.76-.64-5.21-1.93-1.45-1.29-2.17-3.1-2.17-5.45s.72-4.24,2.17-5.49c1.45-1.26,3.18-1.89,5.21-1.89s3.83.63,5.25,1.89c1.42,1.26,2.13,3.09,2.13,5.49s-.71,4.17-2.13,5.45c-1.42,1.29-3.17,1.93-5.25,1.93ZM703.44,47.24c-2.02,0-3.76-.64-5.21-1.93-1.45-1.28-2.17-3.1-2.17-5.45s.72-4.24,2.17-5.49c1.45-1.26,3.18-1.89,5.21-1.89s3.83.63,5.25,1.89c1.42,1.26,2.13,3.09,2.13,5.49s-.71,4.17-2.13,5.45c-1.42,1.29-3.17,1.93-5.25,1.93Z"/>
      <path class="cls-1" d="M727.47,36.25l17.71-1.64.33.66c-.22.98-.37,2.21-.45,3.69s-.14,2.98-.16,4.51c-.03,1.53-.04,2.84-.04,3.94v49.53h-17.38v-60.68ZM741.98,96.93v-14.43h12.88v12.79l-1.64,1.64h-11.24Z"/>
      <path class="cls-1" d="M760.51,12.63v-5.82l20.91-6.81h.98v5.82l-20.91,6.81h-.98Z"/>
      <path class="cls-1" d="M754.85,82.5h15.91l-5.66,2.38c-.82-.6-1.37-1.72-1.64-3.36-.27-1.64-.41-3.72-.41-6.23v-21.65l16.4-1.64h.98v37.56l-7.05-7.05h16.89v12.79l-1.64,1.64h-35.43v-12.79l1.64-1.64ZM764.45,47.65c-2.02,0-3.76-.64-5.21-1.93-1.45-1.28-2.17-3.13-2.17-5.54s.72-4.15,2.17-5.41c1.45-1.26,3.21-1.89,5.29-1.89s3.74.63,5.17,1.89c1.42,1.26,2.13,3.06,2.13,5.41s-.71,4.25-2.13,5.54c-1.42,1.29-3.17,1.93-5.25,1.93ZM771.75,32.31c-1.86,0-3.43-.57-4.71-1.72-1.29-1.15-1.93-2.79-1.93-4.92s.64-3.77,1.93-4.92c1.28-1.15,2.86-1.72,4.71-1.72s3.5.57,4.76,1.72c1.26,1.15,1.89,2.79,1.89,4.92s-.63,3.77-1.89,4.92c-1.26,1.15-2.84,1.72-4.76,1.72ZM781.1,46c-2.02,0-3.76-.64-5.21-1.93-1.45-1.28-2.17-3.13-2.17-5.54s.72-4.15,2.17-5.41c1.45-1.26,3.21-1.89,5.29-1.89s3.74.63,5.17,1.89c1.42,1.26,2.13,3.06,2.13,5.41s-.71,4.25-2.13,5.54c-1.42,1.28-3.17,1.93-5.25,1.93Z"/>
      <path class="cls-1" d="M788.48,110.79c0-2.35.72-4.15,2.17-5.41s3.21-1.89,5.29-1.89,3.74.63,5.17,1.89,2.13,3.06,2.13,5.41-.71,4.25-2.13,5.54-3.17,1.93-5.25,1.93-3.76-.64-5.21-1.93-2.17-3.13-2.17-5.54ZM790.28,82.5h15.91l-5.66,2.38c-.82-.6-1.37-1.72-1.64-3.36-.27-1.64-.41-3.72-.41-6.23v-21.65l16.4-1.64h.98v37.56l-7.05-7.05h16.89v12.79l-1.64,1.64h-35.43v-12.79l1.64-1.64ZM805.12,108.98c0-2.35.72-4.16,2.17-5.41,1.45-1.26,3.21-1.89,5.29-1.89s3.74.63,5.17,1.89c1.42,1.26,2.13,3.06,2.13,5.41s-.71,4.25-2.13,5.54c-1.42,1.28-3.17,1.93-5.25,1.93s-3.76-.64-5.21-1.93c-1.45-1.29-2.17-3.13-2.17-5.54Z"/>
      <path class="cls-1" d="M844.08,118.83v-5.82l20.91-6.81h.98v5.82l-20.91,6.81h-.98Z"/>
      <path class="cls-1" d="M855.23,54.37c5.41,0,10,1,13.78,2.99,3.77,2,6.63,4.63,8.57,7.91,1.94,3.28,2.91,6.86,2.91,10.74,0,4.32-1,8.23-2.99,11.73-2,3.5-4.81,6.27-8.45,8.32-3.64,2.05-7.94,3.07-12.92,3.07-3.17,0-6.27-.51-9.31-1.52s-5.85-2.47-8.45-4.39c-2.6-1.91-4.85-4.26-6.77-7.05l13.04-9.84c1.42,1.53,3.25,2.93,5.49,4.18,2.24,1.26,4.59,2.27,7.05,3.04,2.46.77,4.73,1.2,6.81,1.31,1.09.06,1.85.08,2.26.08h1.02l-8.12,4.59c1.04-1.59,2.02-3.25,2.95-5,.93-1.75,1.39-3.83,1.39-6.23,0-2.24-.66-4.06-1.97-5.45-1.31-1.39-3.05-2.43-5.21-3.12-2.16-.68-4.5-1.03-7.01-1.03l3.77-2.62c-.49,5.08-1.27,9.55-2.34,13.41-1.07,3.86-2.67,7.07-4.8,9.64-2.13,2.57-4.96,4.51-8.49,5.82-3.53,1.31-8,1.97-13.41,1.97v-12.79l1.64-1.64c3.12,0,5.44-.82,6.97-2.46,1.53-1.64,2.72-4.24,3.57-7.79.85-3.55,1.71-8.23,2.58-14.02l.98-1.07c2.24-.76,4.66-1.42,7.26-1.97,2.6-.55,5.32-.82,8.16-.82Z"/>
    </g>
  </g>
</svg>