<svg xmlns="http://www.w3.org/2000/svg" viewBox="0 0 133.78 170.74"><defs><style>.cls-1{fill:#327951;}.cls-2{fill:#c8aa54;}.cls-3{fill:#a07832;}.cls-4{fill:#337a52;}.cls-5{fill:#347a53;}.cls-6{fill:#c8aa55;}.cls-7{fill:#c8ab55;}.cls-8{fill:#a07830;}.cls-9{fill:#231f20;stroke:#c7a953;stroke-linecap:round;stroke-miterlimit:10;}</style></defs><title>logo_assembly</title><g id="Layer_2" data-name="Layer 2"><g id="Layer_1-2" data-name="Layer 1"><path class="cls-1" d="M127.3,108.24a13.12,13.12,0,0,0-1.65-.14c-2.16-.06-4.32-.1-6.48-.14-.71,0-.68-.08-.68.65v5.67c0,.15,0,.31,0,.47s-.06.25-.25.25-.47,0-.7,0h-4.84l-1.24,0c-.3,0-.34-.06-.35-.34s0-.28,0-.42c0-.76,0-1.53,0-2.3a2.77,2.77,0,0,0-.17-1,6.19,6.19,0,0,0-1.61-2.3,4.19,4.19,0,0,0-2.49-1.09c-.55,0-1.1-.09-1.65-.1-2.4,0-4.8-.06-7.2-.07-2.91,0-5.82,0-8.73,0l-10.61.06-3.78,0c-.12,0-.28,0-.37-.12q.49-1,1-1.92a9.58,9.58,0,0,0,1.19-4.63,24.33,24.33,0,0,0-.19-3.62c-.07.3-.12.61-.18.91a5.47,5.47,0,0,1-1.22,2.65,16.69,16.69,0,0,1-3.46,3.09c-.72.48-1.46.92-2.22,1.34-.59.32-1.17.65-1.75,1A9,9,0,0,0,63.74,111a.8.8,0,0,0-.11.5,1.16,1.16,0,0,0,.58.06h38.23a1.39,1.39,0,0,1,.41,0,4.8,4.8,0,0,1,2.05,1.23,1,1,0,0,1,.26.52,7.83,7.83,0,0,1,0,1.53c0,.12-.09.16-.2.17H54.81c-.18,0-.24-.07-.27-.25s0-.27,0-.41c-.06-.53-.11-1.06-.17-1.58L53.91,109c-.13-1.25-.26-2.5-.4-3.75,0-.29-.07-.57-.11-.84a.28.28,0,0,0-.29.1l-.8.7c-1.19,1.06-2.38,2.12-3.58,3.16a.79.79,0,0,0-.28.83c.25,1.25.46,2.51.68,3.77.1.6.21,1.2.3,1.8,0,.24,0,.28-.24.29H38c-.22,0-.27-.07-.29-.29,0-.74-.06-1.49-.12-2.24-.08-1.09-.16-2.19-.28-3.28q-.35-3.13-.92-6.24a4.81,4.81,0,0,0-.25-1.11,1.81,1.81,0,0,0-.52.47c-1.16,1.23-2.33,2.46-3.47,3.7a1.5,1.5,0,0,1-1.14.51c-1.38,0-2.75.06-4.13.09a2.37,2.37,0,0,0-1.22.38A7.39,7.39,0,0,0,23,109.77a8,8,0,0,0-.79,5.55A6.77,6.77,0,0,0,24.3,119,9.5,9.5,0,0,0,26,120.22a2.78,2.78,0,0,0,1.57.39c1.2,0,2.4,0,3.6-.06a5.74,5.74,0,0,1,.71,0c.69.11.75.21.55.89a9.23,9.23,0,0,1-1.42,2.84,19.43,19.43,0,0,1-3.07,3.4,2.18,2.18,0,0,0-.48.48,1.27,1.27,0,0,0,.67,0,13.23,13.23,0,0,0,7.24-3.8,6.6,6.6,0,0,0,1.68-2.8c.24-.8.09-.67.9-.67h81.3c.74,0,.75-.13,1.58.59a7.22,7.22,0,0,0,6.07,1.78,7.64,7.64,0,0,0,.36-15.06Zm-98.1,7.28a1.86,1.86,0,0,1-1.92-1.89,1.91,1.91,0,1,1,3.82,0A1.88,1.88,0,0,1,29.2,115.52Zm98.87.69a2,2,0,0,1-1.72,1.4,2,2,0,0,1-2-1.11,1,1,0,0,1-.13-.44c0-.75,0-1.5,0-2.24,0-.18,0-.23.26-.23h.88v0c.29,0,.59,0,.88,0a1.88,1.88,0,0,1,1.14.42A1.93,1.93,0,0,1,128.07,116.21Z"/><path class="cls-2" d="M90,33.27l-.81,1.41a68.66,68.66,0,0,1-5.49,7.93c-.89,1.11-1.8,2.21-2.71,3.31a17.72,17.72,0,0,0-3.32,6.31,21.55,21.55,0,0,0-.78,4A25.29,25.29,0,0,0,76.73,59q0,13.07,0,26.12c0,1,.12.94-.91.94H71a.27.27,0,0,1-.27-.28V85.3q0-13.68,0-27.36a26.1,26.1,0,0,1,2.37-10.75,22,22,0,0,1,3.32-5.25A79.85,79.85,0,0,0,83,33.24,33.2,33.2,0,0,0,86.2,27a10.51,10.51,0,0,0,.72-3.17c0-.35.07-.39.46-.39h5.23c.3,0,.35.05.36.33a13.26,13.26,0,0,0,1.31,4.57,44.25,44.25,0,0,0,4.3,7.3c1.56,2.22,3.24,4.34,5,6.41a22.45,22.45,0,0,1,3.77,6.4A26,26,0,0,1,109,54.84a31.66,31.66,0,0,1,.25,3.9V85.16c0,1,.09.86-.84.87H104a5.63,5.63,0,0,1-.58,0,.19.19,0,0,1-.18-.19c0-.24,0-.48,0-.72V59.25c0-.82,0-1.65-.05-2.46a19.64,19.64,0,0,0-3.26-9.72c-.47-.68-1-1.29-1.54-1.92a82.53,82.53,0,0,1-7-9.47c-.41-.66-.78-1.33-1.18-2Z"/><path class="cls-3" d="M68,48.11c0-.06-.08-.11-.11-.17a18.61,18.61,0,0,0-2-2.68,80.31,80.31,0,0,1-6.39-8.53c-.62-.95-1.21-1.92-1.75-2.92-.08-.15-.17-.29-.24-.42s-.22.12-.28.22a70.12,70.12,0,0,1-8.35,11.73,19,19,0,0,0-4.45,9.91,24.38,24.38,0,0,0-.25,3.62V85.06c0,1.12.14,1-.95,1-1.43,0-2.85,0-4.28,0h-.51c-.18,0-.25-.11-.25-.27s0-.29,0-.44v-27a26.63,26.63,0,0,1,2.06-10.38,22.36,22.36,0,0,1,3.63-6,79,79,0,0,0,6.54-8.69,36.52,36.52,0,0,0,3-5.62,12.19,12.19,0,0,0,1-3.7,1.35,1.35,0,0,1,0-.29.24.24,0,0,1,.26-.2h5.52a.22.22,0,0,1,.23.22,16.27,16.27,0,0,0,2,6,50.36,50.36,0,0,0,4.37,6.92c1.21,1.66,2.49,3.27,3.81,4.85l.32.39a.26.26,0,0,1,0,.33c-.07.1-.13.21-.19.31a30.17,30.17,0,0,0-2.45,5.09c0,.14-.1.27-.16.4S68.12,48.05,68,48.11Z"/><path class="cls-1" d="M89.61,19h-2.4c-.51,0-.52,0-.6-.5a16.66,16.66,0,0,0-1.33-4.43,14.46,14.46,0,0,0-5.6-6.5,11.07,11.07,0,0,0-7-1.65A11.34,11.34,0,0,0,67,8.12a14.79,14.79,0,0,0-4.75,5.93,17.06,17.06,0,0,0-1.34,4.43,2.93,2.93,0,0,1,0,.29.25.25,0,0,1-.24.22H55.53a2.17,2.17,0,0,1-.44,0,.14.14,0,0,1-.12-.15,3.1,3.1,0,0,1,0-.43A22.83,22.83,0,0,1,59.09,7.9,18.37,18.37,0,0,1,67.3,1.32,16.71,16.71,0,0,1,83.42,3a20.06,20.06,0,0,1,6.91,8.06,23.43,23.43,0,0,1,2.19,7.33c0,.05,0,.1,0,.15,0,.36,0,.41-.38.42Z"/><path class="cls-1" d="M1.41,111.71a18.47,18.47,0,0,0,.1,2.3,12.87,12.87,0,0,0,.83,3.67,6.22,6.22,0,0,0,3.31,3.5,8.2,8.2,0,0,0,3.77.82,5.58,5.58,0,0,0,1.66-.34,3.25,3.25,0,0,0,2-2,4.56,4.56,0,0,0,.26-1.27,9.25,9.25,0,0,0-.53-3.65,5.3,5.3,0,0,0-.82-1.81.18.18,0,0,1,0-.22l.21-.21,3.07-3.1a1,1,0,0,1,.33-.26.87.87,0,0,1,.17.16A15.58,15.58,0,0,1,19.12,116a10.72,10.72,0,0,1-1.26,7.84,9.83,9.83,0,0,1-1.19,1.68,6.67,6.67,0,0,1-3.15,1.88,13.36,13.36,0,0,1-5.07.47,10.18,10.18,0,0,1-3.77-1.1,7.82,7.82,0,0,1-3.74-4.31A11,11,0,0,1,.23,119a19.18,19.18,0,0,1,.47-5.5A10.7,10.7,0,0,1,1.22,112,2.68,2.68,0,0,1,1.41,111.71Z"/><path class="cls-2" d="M133.44,141.54a3.92,3.92,0,0,0-.49-1.74,2.75,2.75,0,0,0-1.79-1.42,5.28,5.28,0,0,0-2.34,0,3.45,3.45,0,0,0-1.21.44,3.8,3.8,0,0,0-1.73,2.44,5.5,5.5,0,0,0-.14,1.4,4.23,4.23,0,0,1-.23,1.45,1.47,1.47,0,0,1-1.18,1,21.29,21.29,0,0,1-2.65,0c-.11,0-.16-.1-.17-.21v-.47c0-.76,0-1.53,0-2.3a6.42,6.42,0,0,0-.13-1.23,3.1,3.1,0,0,0-2.3-2.57,3.93,3.93,0,0,0-2.7.2,6.31,6.31,0,0,0-1.86,1.24,10.63,10.63,0,0,0-2,2.53c-.08.13-.1.31-.29.36a.52.52,0,0,1,0-.17,23.16,23.16,0,0,0,.21-3.53c0-1.53,0-3.06,0-4.6,0-.15,0-.31,0-.47a.19.19,0,0,0-.21-.22h-.71c-.8,0-.72-.08-.72.73,0,3.35,0,6.69,0,10,0,.17,0,.35,0,.53a.17.17,0,0,1-.15.15.93.93,0,0,1-.23,0h-3.78a.19.19,0,0,1-.19-.18c0-.18,0-.36,0-.53v-5.25c0-.16,0-.32,0-.47a.22.22,0,0,0-.16-.22.86.86,0,0,0-.23-.06,13.47,13.47,0,0,0-3.17-.15A4,4,0,0,0,99.7,140a4.36,4.36,0,0,0-.63,3.76,3.37,3.37,0,0,0,1.1,1.77,4.1,4.1,0,0,0,1.67.83,5.56,5.56,0,0,0,1.47.14h1.23a.17.17,0,0,1,.17.2,2.42,2.42,0,0,1-1.68,2.32,6.17,6.17,0,0,1-2.73.24c-.55-.06-1.08-.16-1.65-.25a5.61,5.61,0,0,0,0,1.48c0,.16.13.22.29.24a15.26,15.26,0,0,0,2.7.12,5.67,5.67,0,0,0,1.73-.35,4.17,4.17,0,0,0,2.86-3.24c.06-.24,0-.56.18-.71s.5-.05.76-.05h15.92c.31,0,.63,0,.94,0a2.48,2.48,0,0,0,2.08-1.25,1.37,1.37,0,0,1,.13-.2.1.1,0,0,1,.15,0l.37.38a3.2,3.2,0,0,0,1.66,1,4.58,4.58,0,0,0,1.11.16h3.65c.14,0,.23-.07.24-.21v-.47c0-.93,0-1.85,0-2.78C133.46,142.56,133.46,142.05,133.44,141.54Zm-28.71-.07v3.12c0,.11,0,.23,0,.35a.19.19,0,0,1-.19.18,9.2,9.2,0,0,1-1.82,0,2.23,2.23,0,0,1-1.88-1.65,3.68,3.68,0,0,1-.09-1.92,2.55,2.55,0,0,1,2.46-2c.4,0,.79,0,1.18,0s.35.09.35.37C104.74,140.45,104.73,141,104.73,141.47Zm14.66,3.66h-6.3a1,1,0,0,1-.57-.06.86.86,0,0,1,.11-.45,12.11,12.11,0,0,1,2.08-3.33,6.71,6.71,0,0,1,1.45-1.21,3.13,3.13,0,0,1,1.09-.42,1.9,1.9,0,0,1,2.28,1.28,3.55,3.55,0,0,1,.2,1c0,.94,0,1.89,0,2.83C119.75,145.09,119.71,145.12,119.39,145.13Zm12.41-.32c0,.27-.05.32-.3.32l-1.71,0a2.82,2.82,0,0,1-.86-.19,2.17,2.17,0,0,1-1.38-1.77,5.2,5.2,0,0,1,0-1.76,2,2,0,0,1,2.28-1.87,1.89,1.89,0,0,1,1.71,1.15,2.51,2.51,0,0,1,.26,1.14v1.41h0C131.8,143.75,131.81,144.28,131.8,144.81Z"/><path class="cls-2" d="M65.93,145.35a.21.21,0,0,0-.23-.21H63.51a4.15,4.15,0,0,1-1.16-.15,2.76,2.76,0,0,1-2-1.76,3,3,0,0,1,.06-2.19,2.14,2.14,0,0,1,1.48-1.32,3.86,3.86,0,0,1,1.69-.08c.35.06.69.14,1,.22s.31,0,.35-.24.07-.62.1-.94a.21.21,0,0,0-.16-.22l-.28-.07a7.56,7.56,0,0,0-2.64-.09,4.17,4.17,0,0,0-2.27,1,4.25,4.25,0,0,0-.69,5.1c.12.2.25.39.44.68l-.67,0H55.85c-1,0-.84.12-.85-.84s0-1.77,0-2.66a4,4,0,0,0-.45-1.75,2.83,2.83,0,0,0-1.86-1.51,5.12,5.12,0,0,0-1.7-.12,3.69,3.69,0,0,0-3.55,3,6.59,6.59,0,0,0-.15,1.4,4.17,4.17,0,0,1-.16,1.22,1.56,1.56,0,0,1-1.68,1.27H43.36c-.73,0-.68.05-.68-.66v-5.25c0-.16,0-.31,0-.47s-.07-.26-.24-.27H41.26a.22.22,0,0,0-.23.22v.53c0,2.46,0,4.92,0,7.38a4.39,4.39,0,0,1-.23,1.44,1.77,1.77,0,0,1-1.29,1.19,4.08,4.08,0,0,1-1,.12h-.59a.21.21,0,0,0-.22.22c0,.35-.09.7-.12,1.05,0,.18,0,.26.22.27a7.33,7.33,0,0,0,2.29-.14,3.18,3.18,0,0,0,2.43-2.39c.11-.4.12-.81.2-1.22,0-.18-.07-.42.11-.55s.38-.05.57-.05h1.59c.24,0,.48,0,.71,0a2.5,2.5,0,0,0,1.79-.9,5.25,5.25,0,0,0,.33-.49c.09-.14.15-.14.27,0s.1.12.16.17a3.58,3.58,0,0,0,2.13,1.16,9.32,9.32,0,0,0,1.58.1H65.72a.21.21,0,0,0,.21-.23Zm-12.59-2.09v1.59c0,.22-.06.28-.29.28l-1.71,0a2.5,2.5,0,0,1-.85-.19,2,2,0,0,1-1.31-1.41,4.58,4.58,0,0,1,0-2.67A1.9,1.9,0,0,1,51,139.53a2.08,2.08,0,0,1,2.33,2.09c0,.54,0,1.09,0,1.64Z"/><path class="cls-2" d="M31.48,138.66a.14.14,0,0,0-.14-.15H30a.18.18,0,0,0-.18.19c0,.16,0,.31,0,.47v5.19c0,.16,0,.31,0,.47s0,.31-.32.31H25.81c-.31,0-.34,0-.35-.33s0-.28,0-.42v-5.19c0-.16,0-.31,0-.47s-.07-.23-.21-.23c-.41,0-.82,0-1.24,0a.19.19,0,0,0-.19.18c0,.18,0,.35,0,.53v5.25c0,.16,0,.32,0,.47a.2.2,0,0,1-.18.2H20c-.58,0-.58,0-.58-.58v-5.78c0-.24-.08-.32-.31-.36a13.43,13.43,0,0,0-3.35-.14,4,4,0,0,0-2.83,1.52,4.37,4.37,0,0,0-.69,4.34,3.25,3.25,0,0,0,1.68,1.9,4.39,4.39,0,0,0,1.81.48c.51,0,1,0,1.53,0s.52,0,.47.55a.93.93,0,0,1,0,.23A2.37,2.37,0,0,1,16.15,149a6,6,0,0,1-2.84.28c-.51-.06-1-.16-1.51-.24-.16,0-.22,0-.21.19l.09,1.12c0,.33.06.36.38.41a13.9,13.9,0,0,0,2.58.11,5.75,5.75,0,0,0,1.79-.35,4.3,4.3,0,0,0,2.34-1.87,4.82,4.82,0,0,0,.58-1.85c0-.24.06-.27.28-.28H31.31a.18.18,0,0,0,.18-.19c0-.12,0-.24,0-.36v-7C31.5,138.89,31.49,138.78,31.48,138.66Zm-13.77,2.65v3.3c0,.12,0,.23,0,.35a.15.15,0,0,1-.15.15,6.81,6.81,0,0,1-2.11-.1,2.26,2.26,0,0,1-1.63-1.69,3.79,3.79,0,0,1-.11-1.46,2.58,2.58,0,0,1,2.47-2.33c.41,0,.82,0,1.23,0,.26,0,.31.08.32.33Z"/><path class="cls-1" d="M45.71,126.64c-.73,1.71-2,2.51-3.5,2.23a3.06,3.06,0,0,1-.19-6,3,3,0,0,1,2.27.35,3.3,3.3,0,0,1,1.4,1.82.26.26,0,0,0,.18-.17c.08-.17.16-.36.25-.53a3.06,3.06,0,1,1,0,3c-.1-.19-.19-.39-.28-.59A.26.26,0,0,0,45.71,126.64Z"/><path class="cls-2" d="M90.49,142.73v-3.89c0-.32,0-.38-.35-.43a12.14,12.14,0,0,0-3.35-.13,4.06,4.06,0,0,0-3.3,2.27,4.44,4.44,0,0,0-.41,2.75,3.51,3.51,0,0,0,2.34,2.93,4.4,4.4,0,0,0,1.44.29l1.65,0c.28,0,.34.06.31.35a2.4,2.4,0,0,1-1.33,2,3.14,3.14,0,0,1-.89.31,6.67,6.67,0,0,1-2.4.05c-.42-.08-.85-.14-1.28-.21-.15,0-.22,0-.21.19,0,.41.06.82.1,1.23,0,.23.06.26.29.29a14.92,14.92,0,0,0,2.41.13,6,6,0,0,0,1.79-.27,4.19,4.19,0,0,0,2.88-2.58,4.7,4.7,0,0,0,.31-1.78Zm-1.66-.39v2.18c0,.13,0,.27,0,.41a.18.18,0,0,1-.18.19,8.45,8.45,0,0,1-1.88,0,2.31,2.31,0,0,1-1.93-2.16,5.14,5.14,0,0,1,0-1.11,2.54,2.54,0,0,1,2.33-2.27,12.22,12.22,0,0,1,1.35,0c.29,0,.34.06.34.36,0,.8,0,1.6,0,2.41Z"/><path class="cls-2" d="M9.53,142.34c0,1,0,2,0,2.94a9.55,9.55,0,0,1-.35,2.5,7.45,7.45,0,0,1-.36.93,3.44,3.44,0,0,1-2.26,1.93,6.12,6.12,0,0,1-3.42,0,3.65,3.65,0,0,1-2.42-2.16,6.34,6.34,0,0,1-.49-2.05,10.89,10.89,0,0,1,.38-3.68.59.59,0,0,1,.55-.5c.39,0,.78-.11,1.16-.17a.11.11,0,0,1,.14.14,2.46,2.46,0,0,1-.11.45A9.9,9.9,0,0,0,2,146.38a4.24,4.24,0,0,0,.6,2,2.36,2.36,0,0,0,2,1.16h.65a2.27,2.27,0,0,0,1.93-1.17,4.4,4.4,0,0,0,.6-1.83,14.81,14.81,0,0,0,.11-2c0-1.82,0-3.65,0-5.48,0-.53,0-.53.51-.52h.94a.18.18,0,0,1,.19.18c0,.16,0,.32,0,.47v3.19Z"/><path class="cls-2" d="M73.56,142.1a1.08,1.08,0,0,1-.11.61,10,10,0,0,0-.41,3.08,6.15,6.15,0,0,0,.32,1.85,3.49,3.49,0,0,0,.74,1.2,3,3,0,0,0,3.82-.05,3.91,3.91,0,0,0,.87-1.78,8,8,0,0,0,.16-1.76v-6c0-.18,0-.35,0-.53a.2.2,0,0,1,.22-.22h1.18c.18,0,.23.07.24.27a2.81,2.81,0,0,1,0,.29q0,3.07,0,6.13a9.17,9.17,0,0,1-.27,2.45,4.69,4.69,0,0,1-1.08,2.07,3.59,3.59,0,0,1-1.55.93,6,6,0,0,1-3.26.11A3.73,3.73,0,0,1,71.63,148a7.62,7.62,0,0,1-.29-3.08,16.79,16.79,0,0,1,.38-2.14.53.53,0,0,1,.51-.47Z"/><path class="cls-1" d="M8.06,108.89A3.09,3.09,0,0,1,5,105.79a3.13,3.13,0,0,1,3.11-3,3,3,0,0,1,3,3.08A3,3,0,0,1,8.06,108.89Z"/><path class="cls-2" d="M91.36,150.79c0-.39.09-.79.16-1.2,0-.23.06-.24.31-.24h.83a2.91,2.91,0,0,0,1-.21,1.69,1.69,0,0,0,1-1,3.27,3.27,0,0,0,.23-1.15v-7.9c0-.6,0-.61.57-.59a2.25,2.25,0,0,1,1,.08,3,3,0,0,1,.06,1v7a6.94,6.94,0,0,1-.22,1.87,3.09,3.09,0,0,1-2.07,2.23,4.15,4.15,0,0,1-1.26.25H91.72A.43.43,0,0,1,91.36,150.79Z"/><path class="cls-2" d="M36.46,140.09c0,1.91,0,3.81,0,5.72,0,.18,0,.36,0,.53a.17.17,0,0,1-.19.18H35a.2.2,0,0,1-.21-.23c0-.18,0-.36,0-.54V135.33c0-.45,0-.45-.45-.5l-.94-.1c-.08,0-.17,0-.2-.1a1.28,1.28,0,0,1,0-.75c0-.08.11-.1.19-.1.47,0,.94-.12,1.41-.11s.91,0,1.36,0c.22,0,.26.05.27.29s0,.31,0,.47Z"/><path class="cls-4" d="M72.14,92.37a.43.43,0,0,1,.16.29c0,.16.07.31.12.46.12.35.27.46.6.45a.69.69,0,0,0,.7-.52,6.33,6.33,0,0,0,.12-.76,1.6,1.6,0,0,1,.17-.63.59.59,0,0,1,.3.53A3.42,3.42,0,0,1,74,94a1.46,1.46,0,0,1-1.08.83.9.9,0,0,1-.73-.15.24.24,0,0,0-.32,0c-.27.26-.52.54-.8.79a1.1,1.1,0,0,1-1.58,0,.79.79,0,0,1-.26-.51,3.84,3.84,0,0,1,.52-2.2.15.15,0,0,1,.1-.06.23.23,0,0,1,.09.08.4.4,0,0,1,0,.34,4.82,4.82,0,0,1-.11.52.54.54,0,0,0,.16.64.81.81,0,0,0,.83.16,1.17,1.17,0,0,0,.64-.65c.15-.35.28-.7.41-1C72,92.6,72,92.46,72.14,92.37Z"/><path class="cls-5" d="M69.89,98.34a2.52,2.52,0,0,1,.2-.92c.07-.2.27-.28.43-.38l3.09-1.83L74,95a.12.12,0,0,1,.15,0,.15.15,0,0,1,0,.11c0,.1,0,.19-.06.29a1.16,1.16,0,0,1-.66.9c-1,.59-2.06,1.22-3.09,1.83A1.12,1.12,0,0,1,69.89,98.34Z"/><path class="cls-6" d="M26.55,149.07a1.07,1.07,0,0,1-1.11,1.11,1.12,1.12,0,0,1-1.09-1.09A1.1,1.1,0,0,1,25.48,148,1.06,1.06,0,0,1,26.55,149.07Z"/><path class="cls-6" d="M23.72,149.05a1.08,1.08,0,0,1-1.1,1.12,1.1,1.1,0,1,1,1.1-1.12Z"/><path class="cls-7" d="M77.16,138.91a1,1,0,0,1-1.07,1,1,1,0,1,1,.07-2.09A1,1,0,0,1,77.16,138.91Z"/><path class="cls-7" d="M30.68,137a1.05,1.05,0,0,1-1.06-1,1,1,0,0,1,1.06-1,1,1,0,0,1,1,1A1,1,0,0,1,30.68,137Z"/><path class="cls-7" d="M5.07,137.82a1.05,1.05,0,0,1-.09,2.1,1.07,1.07,0,0,1-1-1.1A1.05,1.05,0,0,1,5.07,137.82Z"/><path class="cls-8" d="M25.53,170.74a4.22,4.22,0,0,1-1.78-.36,3,3,0,0,1-1.24-1,2.51,2.51,0,0,1-.44-1.45c0-.16,0-.36,0-.61s.06-.54.1-.85.09-.64.14-1,.09-.64.14-.95l1.51.21q-.12.77-.21,1.41c-.05.42-.1.78-.13,1.08s0,.52,0,.65a1.41,1.41,0,0,0,.22.8,1.65,1.65,0,0,0,.66.52,2.54,2.54,0,0,0,1,.19,2.5,2.5,0,0,0,1-.18,1.27,1.27,0,0,0,.56-.51,1.45,1.45,0,0,0,.18-.72v-5.87h1.54V168a2.43,2.43,0,0,1-.43,1.44,2.73,2.73,0,0,1-1.18,1A4,4,0,0,1,25.53,170.74Zm-.83-9v-1.31h1.53v1.31Zm4.14,2.89v-1.34h2.42v1.34Zm1.41,5.73V169h1.48v1.31Zm1-2.45v-5.76h1.53v5.18l-.9-.75h2.33v1.33Zm1.08,2.45V169h1.48v1.31Zm1.88-2.45v-1.33a.16.16,0,0,1,.11.05.3.3,0,0,1,.07.14c0,.06,0,.13,0,.21a3.65,3.65,0,0,1,0,.54c0,.09,0,.16,0,.22a.4.4,0,0,1-.07.13A.15.15,0,0,1,34.22,167.89Z"/><path class="cls-8" d="M34.22,167.89a.15.15,0,0,1-.11,0,.81.81,0,0,1-.06-.13.67.67,0,0,1,0-.22,2.13,2.13,0,0,1,0-.27,1.69,1.69,0,0,1,0-.35.57.57,0,0,1,.07-.23c0-.06.08-.09.13-.09Zm0,0v-1.33h6l-.7.6v-2.11a2.52,2.52,0,0,0-.14-1,.86.86,0,0,0-.47-.5,2.62,2.62,0,0,0-.94-.14,7,7,0,0,0-.92.06,3,3,0,0,0-.71.17l1-.9c0,.18-.09.4-.14.67s-.08.55-.11.85,0,.6,0,.89a8.13,8.13,0,0,0,0,.84c0,.29.06.55.09.77a2.6,2.6,0,0,0,.09.46l-1.46.4c0-.11-.07-.28-.12-.53s-.08-.53-.12-.87-.05-.69-.05-1.07a9.73,9.73,0,0,1,.06-1.1c0-.36.08-.68.13-1s.1-.52.14-.69a5.27,5.27,0,0,1,.87-.21,7.35,7.35,0,0,1,1.29-.1,4.52,4.52,0,0,1,1.72.28,2.06,2.06,0,0,1,1,.93,3.71,3.71,0,0,1,.34,1.74v2.83Zm6.79,0v-1.33h1.22v1.33Zm1.22,0v-1.33a.16.16,0,0,1,.1.05.3.3,0,0,1,.07.14c0,.06,0,.13,0,.21a1.83,1.83,0,0,1,0,.54c0,.09,0,.16,0,.22a.4.4,0,0,1-.07.13A.14.14,0,0,1,42.23,167.89Z"/><path class="cls-8" d="M42.23,167.89a.12.12,0,0,1-.11,0,.4.4,0,0,1-.07-.13,1.09,1.09,0,0,1,0-.22,2.26,2.26,0,0,1,0-.27,1.78,1.78,0,0,1,0-.35.57.57,0,0,1,.07-.23.16.16,0,0,1,.14-.09Zm0,0v-1.33h8l-1.06.86v-2a4.12,4.12,0,0,0-.26-1.59,1.68,1.68,0,0,0-.82-.86,3.3,3.3,0,0,0-1.44-.27l-.93,0-1,.07c-.34,0-.64,0-.9.08l-.16-1,.9-.22c.35-.08.71-.14,1.09-.19a7.08,7.08,0,0,1,1.11-.08,5.08,5.08,0,0,1,1.45.2,3.43,3.43,0,0,1,1.27.66,3.26,3.26,0,0,1,.89,1.25,5,5,0,0,1,.33,2v2.43Zm1.18-1.33V166a2,2,0,0,1,.28-1,2.23,2.23,0,0,1,3-.76,2.18,2.18,0,0,1,.76.75,2,2,0,0,1,.28,1v.57H46.49V166a1.07,1.07,0,0,0-.13-.51,1.17,1.17,0,0,0-.33-.37.82.82,0,0,0-.46-.13.85.85,0,0,0-.47.13,1.2,1.2,0,0,0-.34.37,1.07,1.07,0,0,0-.12.51v.57Z"/><path class="cls-8" d="M52.24,167.89v-8.11h1.53v8.11Zm1.53,0v-1.33h1.31v1.33Zm1.31,0v-1.33a.14.14,0,0,1,.11.05.3.3,0,0,1,.07.14,1.12,1.12,0,0,1,0,.21,3.65,3.65,0,0,1,0,.54,1.09,1.09,0,0,1,0,.22.4.4,0,0,1-.07.13A.14.14,0,0,1,55.08,167.89Z"/><path class="cls-8" d="M55.08,167.89a.14.14,0,0,1-.11,0,.76.76,0,0,1-.07-.13,1.09,1.09,0,0,1,0-.22c0-.08,0-.17,0-.27a3.16,3.16,0,0,1,0-.35.56.56,0,0,1,.08-.23.15.15,0,0,1,.13-.09Zm0,0v-1.33h1.68l-.35.36V163.3H58v4.59Zm2.87,0v-1.33h.93a1.18,1.18,0,0,0,.56-.11.63.63,0,0,0,.27-.45,4.9,4.9,0,0,0,.08-1v-2.26h1.54V165a4.55,4.55,0,0,1-.26,1.66,1.75,1.75,0,0,1-.8.94,2.84,2.84,0,0,1-1.39.3Zm3.88,0a2.77,2.77,0,0,1-.93-.17,2.7,2.7,0,0,1-.86-.54l.94-1a2.45,2.45,0,0,0,.43.27,1.25,1.25,0,0,0,.42.08H64l-.79.72v-2.54c0-.13,0-.31,0-.56s-.07-.53-.12-.85-.11-.64-.18-1l1.52-.23c0,.28.1.58.15.92s.1.67.14,1,0,.54,0,.72v3.15Zm2.88,0v-1.33h1.22v1.33Zm1.22,0v-1.33a.14.14,0,0,1,.1.05.23.23,0,0,1,.07.14,1.12,1.12,0,0,1,0,.21,1.83,1.83,0,0,1,0,.54,1.09,1.09,0,0,1,0,.22.27.27,0,0,1-.07.13A.13.13,0,0,1,65.93,167.89Z"/><path class="cls-8" d="M65.93,167.89a.14.14,0,0,1-.11,0,.4.4,0,0,1-.07-.13,1.09,1.09,0,0,1,0-.22,2.26,2.26,0,0,1,0-.27,3.16,3.16,0,0,1,0-.35.56.56,0,0,1,.08-.23.15.15,0,0,1,.13-.09Zm0,0v-1.33h6l-.7.6v-2.11a2.73,2.73,0,0,0-.14-1,.85.85,0,0,0-.48-.5,2.52,2.52,0,0,0-.93-.14,7.14,7.14,0,0,0-.93.06,2.86,2.86,0,0,0-.7.17l.95-.9c0,.18-.09.4-.13.67s-.08.55-.11.85,0,.6,0,.89,0,.55,0,.84.06.55.1.77.06.38.08.46l-1.46.4c0-.11-.06-.28-.11-.53a7.63,7.63,0,0,1-.12-.87,9.15,9.15,0,0,1,0-1.07c0-.38,0-.75,0-1.1s.09-.68.14-1a6.82,6.82,0,0,1,.14-.69,5.1,5.1,0,0,1,.86-.21,7.39,7.39,0,0,1,1.3-.1,4.52,4.52,0,0,1,1.72.28,2.1,2.1,0,0,1,1,.93,3.84,3.84,0,0,1,.34,1.74v2.83Zm6.79,0v-1.33h1.21v1.33Zm1.21,0v-1.33a.16.16,0,0,1,.11.05.3.3,0,0,1,.07.14c0,.06,0,.13,0,.21a3.65,3.65,0,0,1,0,.54c0,.09,0,.16,0,.22a.4.4,0,0,1-.07.13A.15.15,0,0,1,73.93,167.89Z"/><path class="cls-8" d="M73.93,167.89a.15.15,0,0,1-.11,0,.76.76,0,0,1-.07-.13c0-.06,0-.13,0-.22s0-.17,0-.27a1.69,1.69,0,0,1,0-.35.57.57,0,0,1,.07-.23.15.15,0,0,1,.13-.09Zm0,0v-1.33h1.3v1.33Zm1.3,0v-8.11h1.54v8.11Z"/><path class="cls-8" d="M78.36,167.89v-8.11h1.53v8.11Z"/><path class="cls-8" d="M84.23,167.89a3.56,3.56,0,0,1-1.6-.31,2,2,0,0,1-.94-.94,3.7,3.7,0,0,1-.3-1.59,3.87,3.87,0,0,1,.3-1.62,2,2,0,0,1,.94-1,3.42,3.42,0,0,1,1.6-.33h2.6v5H85.29v-4l.38.33H84.23a2.2,2.2,0,0,0-.75.11.7.7,0,0,0-.42.45,3,3,0,0,0-.13,1,3,3,0,0,0,.12,1,.66.66,0,0,0,.4.43,2.34,2.34,0,0,0,.78.1H88v1.33Zm-1.71-6.82v-1.31H84v1.31Zm2.09,0v-1.31h1.48v1.31ZM88,167.89v-1.33a.13.13,0,0,1,.11.05.3.3,0,0,1,.07.14,1.12,1.12,0,0,1,0,.21,3.65,3.65,0,0,1,0,.54,1.09,1.09,0,0,1,0,.22.4.4,0,0,1-.07.13A.12.12,0,0,1,88,167.89Z"/><path class="cls-8" d="M88,167.89a.12.12,0,0,1-.1,0,.4.4,0,0,1-.07-.13.67.67,0,0,1,0-.22,2.26,2.26,0,0,1,0-.27,1.78,1.78,0,0,1,0-.35.57.57,0,0,1,.07-.23c0-.06.08-.09.13-.09Zm0,0v-1.33h2.73l-.9.75v-5.18h1.53v5.76Zm.42,2.45V169h1.48v1.31Zm2.09,0V169H92v1.31Zm.85-2.45v-1.33h1.43v1.33Zm1.43,0v-1.33a.16.16,0,0,1,.11.05.23.23,0,0,1,.06.14,1.12,1.12,0,0,1,0,.21,1.83,1.83,0,0,1,0,.54,1.09,1.09,0,0,1,0,.22.26.26,0,0,1-.06.13A.14.14,0,0,1,92.82,167.89Z"/><path class="cls-8" d="M92.82,167.89a.15.15,0,0,1-.11,0,.76.76,0,0,1-.07-.13,1.09,1.09,0,0,1,0-.22c0-.08,0-.17,0-.27a3.16,3.16,0,0,1,0-.35.76.76,0,0,1,.08-.23.15.15,0,0,1,.13-.09Zm0,0v-1.33h2.44a2.44,2.44,0,0,0,.95-.19,3,3,0,0,0,.84-.5,4.49,4.49,0,0,0,.68-.7,3.38,3.38,0,0,0,.46-.79,2,2,0,0,0,.17-.76v-.73l.73,1.21a5.73,5.73,0,0,0-1.22-.48,5,5,0,0,0-1.18-.16,5.13,5.13,0,0,0-1.18.16,5.65,5.65,0,0,0-1.21.48l.74-1.21v.73a2,2,0,0,0,.16.76,4.26,4.26,0,0,0,.46.79,3.74,3.74,0,0,0,.68.7,3.28,3.28,0,0,0,.84.5,2.41,2.41,0,0,0,.95.19h2.36v1.33H98.61a4.86,4.86,0,0,1-1.68-.28,5.34,5.34,0,0,1-1.41-.77,6,6,0,0,1-1.08-1,4.68,4.68,0,0,1-.7-1.14,2.68,2.68,0,0,1-.24-1V163a5.48,5.48,0,0,1,1-.46,7.52,7.52,0,0,1,1.11-.28,5.59,5.59,0,0,1,1-.1,5.43,5.43,0,0,1,1,.1,7.52,7.52,0,0,1,1.11.28,5.48,5.48,0,0,1,1,.46v.65a2.68,2.68,0,0,1-.24,1A5,5,0,0,1,99,165.8a6.36,6.36,0,0,1-1.09,1,5.34,5.34,0,0,1-1.41.77,4.86,4.86,0,0,1-1.68.28Zm7.67,0v-1.33a.17.17,0,0,1,.12.05.23.23,0,0,1,.06.14,1.12,1.12,0,0,1,0,.21,3.65,3.65,0,0,1,0,.54,1.09,1.09,0,0,1,0,.22.26.26,0,0,1-.06.13A.16.16,0,0,1,100.49,167.89Z"/><path class="cls-8" d="M100.49,167.89a.15.15,0,0,1-.11,0,.76.76,0,0,1-.07-.13,1.09,1.09,0,0,1,0-.22c0-.08,0-.17,0-.27a3.16,3.16,0,0,1,0-.35.76.76,0,0,1,.08-.23.15.15,0,0,1,.13-.09Zm0,0v-1.33h6l-.7.6v-2.11a2.73,2.73,0,0,0-.14-1,.86.86,0,0,0-.47-.5,2.62,2.62,0,0,0-.94-.14,7,7,0,0,0-.92.06,2.84,2.84,0,0,0-.71.17l1-.9c0,.18-.09.4-.13.67s-.08.55-.11.85,0,.6,0,.89a8.13,8.13,0,0,0,0,.84,7.13,7.13,0,0,0,.09.77c0,.22.06.38.08.46l-1.45.4c0-.11-.07-.28-.12-.53s-.09-.53-.12-.87-.05-.69-.05-1.07a9.73,9.73,0,0,1,.06-1.1c0-.36.08-.68.13-1s.1-.52.14-.69a5.37,5.37,0,0,1,.86-.21,7.46,7.46,0,0,1,1.3-.1,4.52,4.52,0,0,1,1.72.28,2.1,2.1,0,0,1,1,.93,3.84,3.84,0,0,1,.34,1.74v2.83Zm6.79,0v-1.33h1.21v1.33Zm1.21,0v-1.33a.16.16,0,0,1,.11.05.3.3,0,0,1,.07.14c0,.06,0,.13,0,.21a3.65,3.65,0,0,1,0,.54c0,.09,0,.16,0,.22a.4.4,0,0,1-.07.13A.15.15,0,0,1,108.49,167.89Z"/><path class="cls-8" d="M108.49,167.89a.15.15,0,0,1-.11,0,.39.39,0,0,1-.06-.13.67.67,0,0,1,0-.22,2.13,2.13,0,0,1,0-.27,1.69,1.69,0,0,1,0-.35.57.57,0,0,1,.07-.23c0-.06.08-.09.13-.09Zm0,0v-1.33h4.94l-.52.43v-2.13a1.25,1.25,0,0,0-.43-1,2.09,2.09,0,0,0-1.36-.36c-.17,0-.41,0-.72,0l-1,.12-.15-1.21c.33-.08.67-.15,1-.2a6.85,6.85,0,0,1,1-.08,3.86,3.86,0,0,1,1.65.33,2.57,2.57,0,0,1,1.12.93,2.54,2.54,0,0,1,.41,1.47v3Zm2.22,2.45V169h1.54v1.31Z"/><line class="cls-9" x1="119.21" y1="165.48" x2="133.28" y2="165.48"/><line class="cls-9" x1="0.5" y1="165.48" x2="17.56" y2="165.48"/></g></g></svg>